<svg xmlns="http://www.w3.org/2000/svg" version="1.1" xmlns:xlink="http://www.w3.org/1999/xlink" xmlns:svgjs="http://svgjs.dev/svgjs" width="800" height="800" preserveAspectRatio="none" viewBox="0 0 800 800"><g mask="url(&quot;#SvgjsMask1000&quot;)" fill="none"><path d="M55.04 145.67L90.55 166.17L90.55 207.17L55.04 227.67L19.53 207.17L19.53 166.17zM19.53 207.17L55.04 227.67L55.04 268.67L19.53 289.17L-15.98 268.67L-15.98 227.67zM19.53 330.17L55.04 350.67L55.04 391.67L19.53 412.17L-15.98 391.67L-15.98 350.67zM197.07 145.67L232.58 166.17L232.58 207.17L197.07 227.67L161.56 207.17L161.56 166.17zM197.07 268.67L232.58 289.17L232.58 330.17L197.07 350.67L161.56 330.17L161.56 289.17zM161.56 453.17L197.07 473.67L197.07 514.67L161.56 535.17L126.05 514.67L126.05 473.67zM232.58 453.17L268.09 473.67L268.09 514.67L232.58 535.17L197.07 514.67L197.07 473.67zM339.1 391.67L374.61 412.17L374.61 453.17L339.1 473.67L303.59 453.17L303.59 412.17zM410.12 145.67L445.63 166.17L445.63 207.17L410.12 227.67L374.61 207.17L374.61 166.17zM410.12 391.67L445.63 412.17L445.63 453.17L410.12 473.67L374.61 453.17L374.61 412.17zM481.13 637.67L516.64 658.17L516.64 699.17L481.13 719.67L445.63 699.17L445.63 658.17zM658.67 84.17L694.18 104.67L694.18 145.67L658.67 166.17L623.17 145.67L623.17 104.67zM658.67 330.17L694.18 350.67L694.18 391.67L658.67 412.17L623.17 391.67L623.17 350.67zM765.2 637.67L800.71 658.17L800.71 699.17L765.2 719.67L729.69 699.17L729.69 658.17zM836.22 145.67L871.72 166.17L871.72 207.17L836.22 227.67L800.71 207.17L800.71 166.17zM836.22 391.67L871.72 412.17L871.72 453.17L836.22 473.67L800.71 453.17L800.71 412.17zM800.71 453.17L836.22 473.67L836.22 514.67L800.71 535.17L765.2 514.67L765.2 473.67zM800.71 699.17L836.22 719.67L836.22 760.67L800.71 781.17L765.2 760.67L765.2 719.67z" stroke="rgba(39, 42, 49, 0.07)" stroke-width="2"></path><path d="M50.94 145.67 a4.1 4.1 0 1 0 8.2 0 a4.1 4.1 0 1 0 -8.2 0zM86.45 166.17 a4.1 4.1 0 1 0 8.2 0 a4.1 4.1 0 1 0 -8.2 0zM86.45 207.17 a4.1 4.1 0 1 0 8.2 0 a4.1 4.1 0 1 0 -8.2 0zM50.94 227.67 a4.1 4.1 0 1 0 8.2 0 a4.1 4.1 0 1 0 -8.2 0zM15.43 207.17 a4.1 4.1 0 1 0 8.2 0 a4.1 4.1 0 1 0 -8.2 0zM15.43 166.17 a4.1 4.1 0 1 0 8.2 0 a4.1 4.1 0 1 0 -8.2 0zM50.94 268.67 a4.1 4.1 0 1 0 8.2 0 a4.1 4.1 0 1 0 -8.2 0zM15.43 289.17 a4.1 4.1 0 1 0 8.2 0 a4.1 4.1 0 1 0 -8.2 0zM-20.08 268.67 a4.1 4.1 0 1 0 8.2 0 a4.1 4.1 0 1 0 -8.2 0zM-20.08 227.67 a4.1 4.1 0 1 0 8.2 0 a4.1 4.1 0 1 0 -8.2 0zM15.43 330.17 a4.1 4.1 0 1 0 8.2 0 a4.1 4.1 0 1 0 -8.2 0zM50.94 350.67 a4.1 4.1 0 1 0 8.2 0 a4.1 4.1 0 1 0 -8.2 0zM50.94 391.67 a4.1 4.1 0 1 0 8.2 0 a4.1 4.1 0 1 0 -8.2 0zM15.43 412.17 a4.1 4.1 0 1 0 8.2 0 a4.1 4.1 0 1 0 -8.2 0zM-20.08 391.67 a4.1 4.1 0 1 0 8.2 0 a4.1 4.1 0 1 0 -8.2 0zM-20.08 350.67 a4.1 4.1 0 1 0 8.2 0 a4.1 4.1 0 1 0 -8.2 0zM192.97 145.67 a4.1 4.1 0 1 0 8.2 0 a4.1 4.1 0 1 0 -8.2 0zM228.48 166.17 a4.1 4.1 0 1 0 8.2 0 a4.1 4.1 0 1 0 -8.2 0zM228.48 207.17 a4.1 4.1 0 1 0 8.2 0 a4.1 4.1 0 1 0 -8.2 0zM192.97 227.67 a4.1 4.1 0 1 0 8.2 0 a4.1 4.1 0 1 0 -8.2 0zM157.46 207.17 a4.1 4.1 0 1 0 8.2 0 a4.1 4.1 0 1 0 -8.2 0zM157.46 166.17 a4.1 4.1 0 1 0 8.2 0 a4.1 4.1 0 1 0 -8.2 0zM192.97 268.67 a4.1 4.1 0 1 0 8.2 0 a4.1 4.1 0 1 0 -8.2 0zM228.48 289.17 a4.1 4.1 0 1 0 8.2 0 a4.1 4.1 0 1 0 -8.2 0zM228.48 330.17 a4.1 4.1 0 1 0 8.2 0 a4.1 4.1 0 1 0 -8.2 0zM192.97 350.67 a4.1 4.1 0 1 0 8.2 0 a4.1 4.1 0 1 0 -8.2 0zM157.46 330.17 a4.1 4.1 0 1 0 8.2 0 a4.1 4.1 0 1 0 -8.2 0zM157.46 289.17 a4.1 4.1 0 1 0 8.2 0 a4.1 4.1 0 1 0 -8.2 0zM157.46 453.17 a4.1 4.1 0 1 0 8.2 0 a4.1 4.1 0 1 0 -8.2 0zM192.97 473.67 a4.1 4.1 0 1 0 8.2 0 a4.1 4.1 0 1 0 -8.2 0zM192.97 514.67 a4.1 4.1 0 1 0 8.2 0 a4.1 4.1 0 1 0 -8.2 0zM157.46 535.17 a4.1 4.1 0 1 0 8.2 0 a4.1 4.1 0 1 0 -8.2 0zM121.95 514.67 a4.1 4.1 0 1 0 8.2 0 a4.1 4.1 0 1 0 -8.2 0zM121.95 473.67 a4.1 4.1 0 1 0 8.2 0 a4.1 4.1 0 1 0 -8.2 0zM228.48 453.17 a4.1 4.1 0 1 0 8.2 0 a4.1 4.1 0 1 0 -8.2 0zM263.99 473.67 a4.1 4.1 0 1 0 8.2 0 a4.1 4.1 0 1 0 -8.2 0zM263.99 514.67 a4.1 4.1 0 1 0 8.2 0 a4.1 4.1 0 1 0 -8.2 0zM228.48 535.17 a4.1 4.1 0 1 0 8.2 0 a4.1 4.1 0 1 0 -8.2 0zM335 391.67 a4.1 4.1 0 1 0 8.2 0 a4.1 4.1 0 1 0 -8.2 0zM370.51 412.17 a4.1 4.1 0 1 0 8.2 0 a4.1 4.1 0 1 0 -8.2 0zM370.51 453.17 a4.1 4.1 0 1 0 8.2 0 a4.1 4.1 0 1 0 -8.2 0zM335 473.67 a4.1 4.1 0 1 0 8.2 0 a4.1 4.1 0 1 0 -8.2 0zM299.49 453.17 a4.1 4.1 0 1 0 8.2 0 a4.1 4.1 0 1 0 -8.2 0zM299.49 412.17 a4.1 4.1 0 1 0 8.2 0 a4.1 4.1 0 1 0 -8.2 0zM406.02 145.67 a4.1 4.1 0 1 0 8.2 0 a4.1 4.1 0 1 0 -8.2 0zM441.53 166.17 a4.1 4.1 0 1 0 8.2 0 a4.1 4.1 0 1 0 -8.2 0zM441.53 207.17 a4.1 4.1 0 1 0 8.2 0 a4.1 4.1 0 1 0 -8.2 0zM406.02 227.67 a4.1 4.1 0 1 0 8.2 0 a4.1 4.1 0 1 0 -8.2 0zM370.51 207.17 a4.1 4.1 0 1 0 8.2 0 a4.1 4.1 0 1 0 -8.2 0zM370.51 166.17 a4.1 4.1 0 1 0 8.2 0 a4.1 4.1 0 1 0 -8.2 0zM406.02 391.67 a4.1 4.1 0 1 0 8.2 0 a4.1 4.1 0 1 0 -8.2 0zM441.53 412.17 a4.1 4.1 0 1 0 8.2 0 a4.1 4.1 0 1 0 -8.2 0zM441.53 453.17 a4.1 4.1 0 1 0 8.2 0 a4.1 4.1 0 1 0 -8.2 0zM406.02 473.67 a4.1 4.1 0 1 0 8.2 0 a4.1 4.1 0 1 0 -8.2 0zM477.03 637.67 a4.1 4.1 0 1 0 8.2 0 a4.1 4.1 0 1 0 -8.2 0zM512.54 658.17 a4.1 4.1 0 1 0 8.2 0 a4.1 4.1 0 1 0 -8.2 0zM512.54 699.17 a4.1 4.1 0 1 0 8.2 0 a4.1 4.1 0 1 0 -8.2 0zM477.03 719.67 a4.1 4.1 0 1 0 8.2 0 a4.1 4.1 0 1 0 -8.2 0zM441.53 699.17 a4.1 4.1 0 1 0 8.2 0 a4.1 4.1 0 1 0 -8.2 0zM441.53 658.17 a4.1 4.1 0 1 0 8.2 0 a4.1 4.1 0 1 0 -8.2 0zM654.57 84.17 a4.1 4.1 0 1 0 8.2 0 a4.1 4.1 0 1 0 -8.2 0zM690.08 104.67 a4.1 4.1 0 1 0 8.2 0 a4.1 4.1 0 1 0 -8.2 0zM690.08 145.67 a4.1 4.1 0 1 0 8.2 0 a4.1 4.1 0 1 0 -8.2 0zM654.57 166.17 a4.1 4.1 0 1 0 8.2 0 a4.1 4.1 0 1 0 -8.2 0zM619.07 145.67 a4.1 4.1 0 1 0 8.2 0 a4.1 4.1 0 1 0 -8.2 0zM619.07 104.67 a4.1 4.1 0 1 0 8.2 0 a4.1 4.1 0 1 0 -8.2 0zM654.57 330.17 a4.1 4.1 0 1 0 8.2 0 a4.1 4.1 0 1 0 -8.2 0zM690.08 350.67 a4.1 4.1 0 1 0 8.2 0 a4.1 4.1 0 1 0 -8.2 0zM690.08 391.67 a4.1 4.1 0 1 0 8.2 0 a4.1 4.1 0 1 0 -8.2 0zM654.57 412.17 a4.1 4.1 0 1 0 8.2 0 a4.1 4.1 0 1 0 -8.2 0zM619.07 391.67 a4.1 4.1 0 1 0 8.2 0 a4.1 4.1 0 1 0 -8.2 0zM619.07 350.67 a4.1 4.1 0 1 0 8.2 0 a4.1 4.1 0 1 0 -8.2 0zM761.1 637.67 a4.1 4.1 0 1 0 8.2 0 a4.1 4.1 0 1 0 -8.2 0zM796.61 658.17 a4.1 4.1 0 1 0 8.2 0 a4.1 4.1 0 1 0 -8.2 0zM796.61 699.17 a4.1 4.1 0 1 0 8.2 0 a4.1 4.1 0 1 0 -8.2 0zM761.1 719.67 a4.1 4.1 0 1 0 8.2 0 a4.1 4.1 0 1 0 -8.2 0zM725.59 699.17 a4.1 4.1 0 1 0 8.2 0 a4.1 4.1 0 1 0 -8.2 0zM725.59 658.17 a4.1 4.1 0 1 0 8.2 0 a4.1 4.1 0 1 0 -8.2 0zM832.12 145.67 a4.1 4.1 0 1 0 8.2 0 a4.1 4.1 0 1 0 -8.2 0zM867.62 166.17 a4.1 4.1 0 1 0 8.2 0 a4.1 4.1 0 1 0 -8.2 0zM867.62 207.17 a4.1 4.1 0 1 0 8.2 0 a4.1 4.1 0 1 0 -8.2 0zM832.12 227.67 a4.1 4.1 0 1 0 8.2 0 a4.1 4.1 0 1 0 -8.2 0zM796.61 207.17 a4.1 4.1 0 1 0 8.2 0 a4.1 4.1 0 1 0 -8.2 0zM796.61 166.17 a4.1 4.1 0 1 0 8.2 0 a4.1 4.1 0 1 0 -8.2 0zM832.12 391.67 a4.1 4.1 0 1 0 8.2 0 a4.1 4.1 0 1 0 -8.2 0zM867.62 412.17 a4.1 4.1 0 1 0 8.2 0 a4.1 4.1 0 1 0 -8.2 0zM867.62 453.17 a4.1 4.1 0 1 0 8.2 0 a4.1 4.1 0 1 0 -8.2 0zM832.12 473.67 a4.1 4.1 0 1 0 8.2 0 a4.1 4.1 0 1 0 -8.2 0zM796.61 453.17 a4.1 4.1 0 1 0 8.2 0 a4.1 4.1 0 1 0 -8.2 0zM796.61 412.17 a4.1 4.1 0 1 0 8.2 0 a4.1 4.1 0 1 0 -8.2 0zM832.12 514.67 a4.1 4.1 0 1 0 8.2 0 a4.1 4.1 0 1 0 -8.2 0zM796.61 535.17 a4.1 4.1 0 1 0 8.2 0 a4.1 4.1 0 1 0 -8.2 0zM761.1 514.67 a4.1 4.1 0 1 0 8.2 0 a4.1 4.1 0 1 0 -8.2 0zM761.1 473.67 a4.1 4.1 0 1 0 8.2 0 a4.1 4.1 0 1 0 -8.2 0zM832.12 719.67 a4.1 4.1 0 1 0 8.2 0 a4.1 4.1 0 1 0 -8.2 0zM832.12 760.67 a4.1 4.1 0 1 0 8.2 0 a4.1 4.1 0 1 0 -8.2 0zM796.61 781.17 a4.1 4.1 0 1 0 8.2 0 a4.1 4.1 0 1 0 -8.2 0zM761.1 760.67 a4.1 4.1 0 1 0 8.2 0 a4.1 4.1 0 1 0 -8.2 0z" fill="rgba(39, 42, 49, 0.07)"></path><path d="M7.27 -15.71L53.17 10.79L53.17 63.79L7.27 90.29L-38.63 63.79L-38.63 10.79zM144.97 63.79L190.87 90.29L190.87 143.29L144.97 169.79L99.07 143.29L99.07 90.29zM144.97 222.79L190.87 249.29L190.87 302.29L144.97 328.79L99.07 302.29L99.07 249.29zM144.97 540.79L190.87 567.29L190.87 620.29L144.97 646.79L99.07 620.29L99.07 567.29zM190.87 -15.71L236.77 10.79L236.77 63.79L190.87 90.29L144.97 63.79L144.97 10.79zM236.77 63.79L282.67 90.29L282.67 143.29L236.77 169.79L190.87 143.29L190.87 90.29zM190.87 143.29L236.77 169.79L236.77 222.79L190.87 249.29L144.97 222.79L144.97 169.79zM328.57 63.79L374.48 90.29L374.48 143.29L328.57 169.79L282.67 143.29L282.67 90.29zM420.38 699.79L466.28 726.29L466.28 779.29L420.38 805.79L374.48 779.29L374.48 726.29zM374.48 779.29L420.38 805.79L420.38 858.79L374.48 885.29L328.57 858.79L328.57 805.79zM466.28 -15.71L512.18 10.79L512.18 63.79L466.28 90.29L420.38 63.79L420.38 10.79zM466.28 461.29L512.18 487.79L512.18 540.79L466.28 567.29L420.38 540.79L420.38 487.79zM512.18 540.79L558.08 567.29L558.08 620.29L512.18 646.79L466.28 620.29L466.28 567.29zM603.98 63.79L649.88 90.29L649.88 143.29L603.98 169.79L558.08 143.29L558.08 90.29zM558.08 302.29L603.98 328.79L603.98 381.79L558.08 408.29L512.18 381.79L512.18 328.79zM558.08 620.29L603.98 646.79L603.98 699.79L558.08 726.29L512.18 699.79L512.18 646.79zM695.78 222.79L741.68 249.29L741.68 302.29L695.78 328.79L649.88 302.29L649.88 249.29zM695.78 540.79L741.68 567.29L741.68 620.29L695.78 646.79L649.88 620.29L649.88 567.29zM649.88 620.29L695.78 646.79L695.78 699.79L649.88 726.29L603.98 699.79L603.98 646.79zM741.68 143.29L787.58 169.79L787.58 222.79L741.68 249.29L695.78 222.79L695.78 169.79zM741.68 461.29L787.58 487.79L787.58 540.79L741.68 567.29L695.78 540.79L695.78 487.79zM741.68 779.29L787.58 805.79L787.58 858.79L741.68 885.29L695.78 858.79L695.78 805.79z" stroke="rgba(98, 98, 98, 0.07)" stroke-width="2"></path><path d="M1.97 -15.71 a5.3 5.3 0 1 0 10.6 0 a5.3 5.3 0 1 0 -10.6 0zM47.87 10.79 a5.3 5.3 0 1 0 10.6 0 a5.3 5.3 0 1 0 -10.6 0zM47.87 63.79 a5.3 5.3 0 1 0 10.6 0 a5.3 5.3 0 1 0 -10.6 0zM1.97 90.29 a5.3 5.3 0 1 0 10.6 0 a5.3 5.3 0 1 0 -10.6 0zM-43.93 63.79 a5.3 5.3 0 1 0 10.6 0 a5.3 5.3 0 1 0 -10.6 0zM-43.93 10.79 a5.3 5.3 0 1 0 10.6 0 a5.3 5.3 0 1 0 -10.6 0zM139.67 63.79 a5.3 5.3 0 1 0 10.6 0 a5.3 5.3 0 1 0 -10.6 0zM185.57 90.29 a5.3 5.3 0 1 0 10.6 0 a5.3 5.3 0 1 0 -10.6 0zM185.57 143.29 a5.3 5.3 0 1 0 10.6 0 a5.3 5.3 0 1 0 -10.6 0zM139.67 169.79 a5.3 5.3 0 1 0 10.6 0 a5.3 5.3 0 1 0 -10.6 0zM93.77 143.29 a5.3 5.3 0 1 0 10.6 0 a5.3 5.3 0 1 0 -10.6 0zM93.77 90.29 a5.3 5.3 0 1 0 10.6 0 a5.3 5.3 0 1 0 -10.6 0zM139.67 222.79 a5.3 5.3 0 1 0 10.6 0 a5.3 5.3 0 1 0 -10.6 0zM185.57 249.29 a5.3 5.3 0 1 0 10.6 0 a5.3 5.3 0 1 0 -10.6 0zM185.57 302.29 a5.3 5.3 0 1 0 10.6 0 a5.3 5.3 0 1 0 -10.6 0zM139.67 328.79 a5.3 5.3 0 1 0 10.6 0 a5.3 5.3 0 1 0 -10.6 0zM93.77 302.29 a5.3 5.3 0 1 0 10.6 0 a5.3 5.3 0 1 0 -10.6 0zM93.77 249.29 a5.3 5.3 0 1 0 10.6 0 a5.3 5.3 0 1 0 -10.6 0zM139.67 540.79 a5.3 5.3 0 1 0 10.6 0 a5.3 5.3 0 1 0 -10.6 0zM185.57 567.29 a5.3 5.3 0 1 0 10.6 0 a5.3 5.3 0 1 0 -10.6 0zM185.57 620.29 a5.3 5.3 0 1 0 10.6 0 a5.3 5.3 0 1 0 -10.6 0zM139.67 646.79 a5.3 5.3 0 1 0 10.6 0 a5.3 5.3 0 1 0 -10.6 0zM93.77 620.29 a5.3 5.3 0 1 0 10.6 0 a5.3 5.3 0 1 0 -10.6 0zM93.77 567.29 a5.3 5.3 0 1 0 10.6 0 a5.3 5.3 0 1 0 -10.6 0zM185.57 -15.71 a5.3 5.3 0 1 0 10.6 0 a5.3 5.3 0 1 0 -10.6 0zM231.47 10.79 a5.3 5.3 0 1 0 10.6 0 a5.3 5.3 0 1 0 -10.6 0zM231.47 63.79 a5.3 5.3 0 1 0 10.6 0 a5.3 5.3 0 1 0 -10.6 0zM139.67 10.79 a5.3 5.3 0 1 0 10.6 0 a5.3 5.3 0 1 0 -10.6 0zM277.37 90.29 a5.3 5.3 0 1 0 10.6 0 a5.3 5.3 0 1 0 -10.6 0zM277.37 143.29 a5.3 5.3 0 1 0 10.6 0 a5.3 5.3 0 1 0 -10.6 0zM231.47 169.79 a5.3 5.3 0 1 0 10.6 0 a5.3 5.3 0 1 0 -10.6 0zM231.47 222.79 a5.3 5.3 0 1 0 10.6 0 a5.3 5.3 0 1 0 -10.6 0zM323.27 63.79 a5.3 5.3 0 1 0 10.6 0 a5.3 5.3 0 1 0 -10.6 0zM369.18 90.29 a5.3 5.3 0 1 0 10.6 0 a5.3 5.3 0 1 0 -10.6 0zM369.18 143.29 a5.3 5.3 0 1 0 10.6 0 a5.3 5.3 0 1 0 -10.6 0zM323.27 169.79 a5.3 5.3 0 1 0 10.6 0 a5.3 5.3 0 1 0 -10.6 0zM415.08 699.79 a5.3 5.3 0 1 0 10.6 0 a5.3 5.3 0 1 0 -10.6 0zM460.98 726.29 a5.3 5.3 0 1 0 10.6 0 a5.3 5.3 0 1 0 -10.6 0zM460.98 779.29 a5.3 5.3 0 1 0 10.6 0 a5.3 5.3 0 1 0 -10.6 0zM415.08 805.79 a5.3 5.3 0 1 0 10.6 0 a5.3 5.3 0 1 0 -10.6 0zM369.18 779.29 a5.3 5.3 0 1 0 10.6 0 a5.3 5.3 0 1 0 -10.6 0zM369.18 726.29 a5.3 5.3 0 1 0 10.6 0 a5.3 5.3 0 1 0 -10.6 0zM415.08 858.79 a5.3 5.3 0 1 0 10.6 0 a5.3 5.3 0 1 0 -10.6 0zM369.18 885.29 a5.3 5.3 0 1 0 10.6 0 a5.3 5.3 0 1 0 -10.6 0zM323.27 858.79 a5.3 5.3 0 1 0 10.6 0 a5.3 5.3 0 1 0 -10.6 0zM323.27 805.79 a5.3 5.3 0 1 0 10.6 0 a5.3 5.3 0 1 0 -10.6 0zM460.98 -15.71 a5.3 5.3 0 1 0 10.6 0 a5.3 5.3 0 1 0 -10.6 0zM506.88 10.79 a5.3 5.3 0 1 0 10.6 0 a5.3 5.3 0 1 0 -10.6 0zM506.88 63.79 a5.3 5.3 0 1 0 10.6 0 a5.3 5.3 0 1 0 -10.6 0zM460.98 90.29 a5.3 5.3 0 1 0 10.6 0 a5.3 5.3 0 1 0 -10.6 0zM415.08 63.79 a5.3 5.3 0 1 0 10.6 0 a5.3 5.3 0 1 0 -10.6 0zM415.08 10.79 a5.3 5.3 0 1 0 10.6 0 a5.3 5.3 0 1 0 -10.6 0zM460.98 461.29 a5.3 5.3 0 1 0 10.6 0 a5.3 5.3 0 1 0 -10.6 0zM506.88 487.79 a5.3 5.3 0 1 0 10.6 0 a5.3 5.3 0 1 0 -10.6 0zM506.88 540.79 a5.3 5.3 0 1 0 10.6 0 a5.3 5.3 0 1 0 -10.6 0zM460.98 567.29 a5.3 5.3 0 1 0 10.6 0 a5.3 5.3 0 1 0 -10.6 0zM415.08 540.79 a5.3 5.3 0 1 0 10.6 0 a5.3 5.3 0 1 0 -10.6 0zM415.08 487.79 a5.3 5.3 0 1 0 10.6 0 a5.3 5.3 0 1 0 -10.6 0zM552.78 567.29 a5.3 5.3 0 1 0 10.6 0 a5.3 5.3 0 1 0 -10.6 0zM552.78 620.29 a5.3 5.3 0 1 0 10.6 0 a5.3 5.3 0 1 0 -10.6 0zM506.88 646.79 a5.3 5.3 0 1 0 10.6 0 a5.3 5.3 0 1 0 -10.6 0zM460.98 620.29 a5.3 5.3 0 1 0 10.6 0 a5.3 5.3 0 1 0 -10.6 0zM598.68 63.79 a5.3 5.3 0 1 0 10.6 0 a5.3 5.3 0 1 0 -10.6 0zM644.58 90.29 a5.3 5.3 0 1 0 10.6 0 a5.3 5.3 0 1 0 -10.6 0zM644.58 143.29 a5.3 5.3 0 1 0 10.6 0 a5.3 5.3 0 1 0 -10.6 0zM598.68 169.79 a5.3 5.3 0 1 0 10.6 0 a5.3 5.3 0 1 0 -10.6 0zM552.78 143.29 a5.3 5.3 0 1 0 10.6 0 a5.3 5.3 0 1 0 -10.6 0zM552.78 90.29 a5.3 5.3 0 1 0 10.6 0 a5.3 5.3 0 1 0 -10.6 0zM552.78 302.29 a5.3 5.3 0 1 0 10.6 0 a5.3 5.3 0 1 0 -10.6 0zM598.68 328.79 a5.3 5.3 0 1 0 10.6 0 a5.3 5.3 0 1 0 -10.6 0zM598.68 381.79 a5.3 5.3 0 1 0 10.6 0 a5.3 5.3 0 1 0 -10.6 0zM552.78 408.29 a5.3 5.3 0 1 0 10.6 0 a5.3 5.3 0 1 0 -10.6 0zM506.88 381.79 a5.3 5.3 0 1 0 10.6 0 a5.3 5.3 0 1 0 -10.6 0zM506.88 328.79 a5.3 5.3 0 1 0 10.6 0 a5.3 5.3 0 1 0 -10.6 0zM598.68 646.79 a5.3 5.3 0 1 0 10.6 0 a5.3 5.3 0 1 0 -10.6 0zM598.68 699.79 a5.3 5.3 0 1 0 10.6 0 a5.3 5.3 0 1 0 -10.6 0zM552.78 726.29 a5.3 5.3 0 1 0 10.6 0 a5.3 5.3 0 1 0 -10.6 0zM506.88 699.79 a5.3 5.3 0 1 0 10.6 0 a5.3 5.3 0 1 0 -10.6 0zM690.48 222.79 a5.3 5.3 0 1 0 10.6 0 a5.3 5.3 0 1 0 -10.6 0zM736.38 249.29 a5.3 5.3 0 1 0 10.6 0 a5.3 5.3 0 1 0 -10.6 0zM736.38 302.29 a5.3 5.3 0 1 0 10.6 0 a5.3 5.3 0 1 0 -10.6 0zM690.48 328.79 a5.3 5.3 0 1 0 10.6 0 a5.3 5.3 0 1 0 -10.6 0zM644.58 302.29 a5.3 5.3 0 1 0 10.6 0 a5.3 5.3 0 1 0 -10.6 0zM644.58 249.29 a5.3 5.3 0 1 0 10.6 0 a5.3 5.3 0 1 0 -10.6 0zM690.48 540.79 a5.3 5.3 0 1 0 10.6 0 a5.3 5.3 0 1 0 -10.6 0zM736.38 567.29 a5.3 5.3 0 1 0 10.6 0 a5.3 5.3 0 1 0 -10.6 0zM736.38 620.29 a5.3 5.3 0 1 0 10.6 0 a5.3 5.3 0 1 0 -10.6 0zM690.48 646.79 a5.3 5.3 0 1 0 10.6 0 a5.3 5.3 0 1 0 -10.6 0zM644.58 620.29 a5.3 5.3 0 1 0 10.6 0 a5.3 5.3 0 1 0 -10.6 0zM644.58 567.29 a5.3 5.3 0 1 0 10.6 0 a5.3 5.3 0 1 0 -10.6 0zM690.48 699.79 a5.3 5.3 0 1 0 10.6 0 a5.3 5.3 0 1 0 -10.6 0zM644.58 726.29 a5.3 5.3 0 1 0 10.6 0 a5.3 5.3 0 1 0 -10.6 0zM736.38 143.29 a5.3 5.3 0 1 0 10.6 0 a5.3 5.3 0 1 0 -10.6 0zM782.28 169.79 a5.3 5.3 0 1 0 10.6 0 a5.3 5.3 0 1 0 -10.6 0zM782.28 222.79 a5.3 5.3 0 1 0 10.6 0 a5.3 5.3 0 1 0 -10.6 0zM690.48 169.79 a5.3 5.3 0 1 0 10.6 0 a5.3 5.3 0 1 0 -10.6 0zM736.38 461.29 a5.3 5.3 0 1 0 10.6 0 a5.3 5.3 0 1 0 -10.6 0zM782.28 487.79 a5.3 5.3 0 1 0 10.6 0 a5.3 5.3 0 1 0 -10.6 0zM782.28 540.79 a5.3 5.3 0 1 0 10.6 0 a5.3 5.3 0 1 0 -10.6 0zM690.48 487.79 a5.3 5.3 0 1 0 10.6 0 a5.3 5.3 0 1 0 -10.6 0zM736.38 779.29 a5.3 5.3 0 1 0 10.6 0 a5.3 5.3 0 1 0 -10.6 0zM782.28 805.79 a5.3 5.3 0 1 0 10.6 0 a5.3 5.3 0 1 0 -10.6 0zM782.28 858.79 a5.3 5.3 0 1 0 10.6 0 a5.3 5.3 0 1 0 -10.6 0zM736.38 885.29 a5.3 5.3 0 1 0 10.6 0 a5.3 5.3 0 1 0 -10.6 0zM690.48 858.79 a5.3 5.3 0 1 0 10.6 0 a5.3 5.3 0 1 0 -10.6 0zM690.48 805.79 a5.3 5.3 0 1 0 10.6 0 a5.3 5.3 0 1 0 -10.6 0z" fill="rgba(98, 98, 98, 0.07)"></path></g><defs><mask id="SvgjsMask1000"><rect width="800" height="800" fill="#ffffff"></rect></mask></defs></svg>